# xmcd
#
# Track frame offsets:
#	150
#	15075
#	30730
#	52108
#	69270
#	85101
#	98358
#	118321
#	134032
#	158301
#	177427
#	192705
#	208166
#	226589
#	241183
#
# Disc length: 3475 seconds
#
# Revision: 1
# Processed by: cddbd v1.5.2PL0 Copyright (c) Steve Scherf et al.
# Submitted via: audiograbber 1.83.01
#
DISCID=bd0d910f
DTITLE=Chartbuster Time Line Series 1995 - 80157
DYEAR=2005
DGENRE=Country
TTITLE0=Tim McGraw  - I Like It, I Love It 
TTITLE1=Jeff Carson  - Not On Your Love 
TTITLE2=Shania Twain  - If You're Not In It For Love (I'm Outta Here)
TTITLE3=Mac Wiseman  - Dust On The Bible 
TTITLE4=Bryan White  - Someone Else's Star 
TTITLE5=Garth Brooks  - She's Every Woman 
TTITLE6=Shania Twain  - Whose Bed Have Your Boots Been Under 
TTITLE7=George Strait  - Check Yes Or No 
TTITLE8=Vince Gill  - Go Rest High On That Mountain 
TTITLE9=Tracy Byrd  - Keeper Of The Stars, The 
TTITLE10=Terri Clark  - Better Things To Go 
TTITLE11=David Lee Murphy  - Party Crowd 
TTITLE12=Rhett Akins  - That Ain't My Truck 
TTITLE13=Tracy Lawrence  - If The World Had A Front Porch 
TTITLE14=Collin Raye  - One Boy, One Girl 
EXTD=
EXTT0=
EXTT1=
EXTT2=
EXTT3=
EXTT4=
EXTT5=
EXTT6=
EXTT7=
EXTT8=
EXTT9=
EXTT10=
EXTT11=
EXTT12=
EXTT13=
EXTT14=
PLAYORDER=
